<svg xmlns="http://www.w3.org/2000/svg" width="1200" height="300" viewBox="0 0 1200 300">
  <!-- Dark water background -->
  <rect width="1200" height="300" fill="#051a2e" />
  
  <!-- Mysterious fog/mist patterns -->
  <path d="M0,50 Q300,100 600,50 Q900,0 1200,50 L1200,0 L0,0 Z" fill="#0a2e42" opacity="0.5" />
  <path d="M0,150 Q300,100 600,150 Q900,200 1200,150 L1200,100 L0,100 Z" fill="#0a2e42" opacity="0.4" />
  <path d="M0,250 Q300,300 600,250 Q900,200 1200,250 L1200,200 L0,200 Z" fill="#0a2e42" opacity="0.3" />
  
  <!-- Loch Ness silhouette in the distance -->
  <path d="M50,200 C150,180 250,190 350,170 C450,150 550,160 650,140 C750,120 850,130 950,110 C1050,90 1150,100 1250,80 L1250,300 L-50,300 Z" 
        fill="#0e2e1a" opacity="0.7" />
  
  <!-- Subtle Nessie silhouette -->
  <path d="M800,150 C820,130 840,140 860,120 C880,100 900,110 920,130 C920,150 900,160 880,150 C860,160 840,170 820,160 C800,170 780,160 800,150 Z" 
        fill="#0e3320" opacity="0.4" />
  
  <!-- Mysterious lights/glows in the distance -->
  <circle cx="300" cy="100" r="5" fill="#4a8cba" opacity="0.6">
    <animate attributeName="opacity" values="0.3;0.7;0.3" dur="5s" repeatCount="indefinite" />
  </circle>
  <circle cx="700" cy="80" r="4" fill="#4a8cba" opacity="0.5">
    <animate attributeName="opacity" values="0.2;0.6;0.2" dur="7s" repeatCount="indefinite" />
  </circle>
  <circle cx="1000" cy="120" r="6" fill="#4a8cba" opacity="0.4">
    <animate attributeName="opacity" values="0.1;0.5;0.1" dur="6s" repeatCount="indefinite" />
  </circle>
  
  <!-- Ancient runes/symbols -->
  <path d="M200,50 L210,60 M195,60 L205,50" stroke="#2a5c34" stroke-width="2" opacity="0.3" />
  <path d="M500,70 L510,80 M495,80 L505,70" stroke="#2a5c34" stroke-width="2" opacity="0.3" />
  <path d="M900,40 L910,50 M895,50 L905,40" stroke="#2a5c34" stroke-width="2" opacity="0.3" />
</svg>
