<svg xmlns="http://www.w3.org/2000/svg" viewBox="0 0 100 100" width="100" height="100">
  <!-- Water background -->
  <circle cx="50" cy="50" r="48" fill="#0a3b5c" />
  
  <!-- Nessie body -->
  <path d="M25,60 C35,40 45,55 55,45 C65,35 75,40 85,50 C85,60 75,65 65,60 C55,65 45,70 35,65 C25,70 15,65 25,60 Z" 
        fill="#1a5c34" stroke="#0e3320" stroke-width="2" />
  
  <!-- Nessie head -->
  <path d="M80,50 C85,48 90,50 92,55 C94,60 90,65 85,63 C80,61 75,52 80,50 Z" 
        fill="#1a5c34" stroke="#0e3320" stroke-width="2" />
  
  <!-- Nessie eye -->
  <circle cx="88" cy="55" r="2" fill="#ffffff" />
  <circle cx="88" cy="55" r="1" fill="#000000" />
  
  <!-- Water ripples -->
  <path d="M15,70 Q25,65 35,70 Q45,75 55,70 Q65,65 75,70 Q85,75 95,70" 
        fill="none" stroke="#4a8cba" stroke-width="2" stroke-opacity="0.5" />
  <path d="M10,80 Q20,75 30,80 Q40,85 50,80 Q60,75 70,80 Q80,85 90,80" 
        fill="none" stroke="#4a8cba" stroke-width="2" stroke-opacity="0.3" />
</svg>
